<svg width="48" height="48" viewBox="0 0 48 48" fill="none" xmlns="http://www.w3.org/2000/svg">
<g clip-path="url(#clip0_174_2687)">
<path d="M-12 0H60V48H-12V0Z" fill="#FF9933"/>
<path d="M-12 16H60V48H-12V16Z" fill="white"/>
<path d="M-12 32H60V48H-12V32Z" fill="#128807"/>
<path d="M24.0016 30.4006C27.5362 30.4006 30.4016 27.5352 30.4016 24.0006C30.4016 20.466 27.5362 17.6006 24.0016 17.6006C20.4669 17.6006 17.6016 20.466 17.6016 24.0006C17.6016 27.5352 20.4669 30.4006 24.0016 30.4006Z" fill="#000088"/>
<path d="M24.0008 29.6004C27.0936 29.6004 29.6008 27.0932 29.6008 24.0004C29.6008 20.9076 27.0936 18.4004 24.0008 18.4004C20.908 18.4004 18.4008 20.9076 18.4008 24.0004C18.4008 27.0932 20.908 29.6004 24.0008 29.6004Z" fill="white"/>
<path d="M23.9998 25.1209C24.6183 25.1209 25.1198 24.6194 25.1198 24.0009C25.1198 23.3823 24.6183 22.8809 23.9998 22.8809C23.3812 22.8809 22.8798 23.3823 22.8798 24.0009C22.8798 24.6194 23.3812 25.1209 23.9998 25.1209Z" fill="#000088"/>
<path d="M29.5061 25.0097C29.6595 25.0299 29.8001 24.922 29.8203 24.7687C29.8405 24.6154 29.7326 24.4747 29.5792 24.4545C29.4259 24.4343 29.2853 24.5423 29.2651 24.6956C29.2449 24.8489 29.3528 24.9895 29.5061 25.0097Z" fill="#000088"/>
<path d="M23.9881 29.6016L24.1801 26.2416L23.9881 24.6416L23.7961 26.2416L23.9881 29.6016Z" fill="#000088"/>
<path d="M29.0206 26.3951C29.1585 26.4588 29.3223 26.3983 29.3865 26.26C29.4506 26.1216 29.3908 25.9579 29.2529 25.8942C29.115 25.8304 28.9512 25.891 28.887 26.0293C28.8229 26.1676 28.8827 26.3314 29.0206 26.3951Z" fill="#000088"/>
<path d="M22.5058 29.4088L23.5634 26.217L23.8034 24.6212L23.2063 26.1142L22.5058 29.4088Z" fill="#000088"/>
<path d="M28.2704 27.6301C28.3914 27.7257 28.5671 27.705 28.663 27.5838C28.7588 27.4627 28.7385 27.2869 28.6175 27.1912C28.4965 27.0956 28.3207 27.1163 28.2249 27.2375C28.129 27.3587 28.1494 27.5344 28.2704 27.6301Z" fill="#000088"/>
<path d="M21.198 28.8513L23.0446 26.0378L23.6796 24.5561L22.7136 25.8455L21.198 28.8513Z" fill="#000088"/>
<path d="M27.1817 28.6108C27.2738 28.7357 27.4495 28.7624 27.5743 28.6705C27.6991 28.5785 27.7257 28.4027 27.6337 28.2779C27.5416 28.153 27.3659 28.1263 27.2411 28.2182C27.1163 28.3102 27.0897 28.486 27.1817 28.6108Z" fill="#000088"/>
<path d="M20.0343 27.9572L22.5472 25.7258L23.5488 24.4573L22.2829 25.4469L20.0343 27.9572Z" fill="#000088"/>
<path d="M25.8946 29.2822C25.9543 29.4244 26.1181 29.4913 26.2605 29.4316C26.4028 29.3718 26.4699 29.208 26.4102 29.0657C26.3505 28.9234 26.1867 28.8566 26.0443 28.9163C25.902 28.9761 25.8349 29.1399 25.8946 29.2822Z" fill="#000088"/>
<path d="M19.1587 26.8005L22.1644 25.2846L23.4534 24.3187L21.9717 24.9539L19.1587 26.8005Z" fill="#000088"/>
<path d="M24.4581 29.5856C24.4766 29.7402 24.6172 29.8503 24.7722 29.8315C24.9272 29.8126 25.0379 29.672 25.0193 29.5173C25.0008 29.3627 24.8602 29.2526 24.7052 29.2714C24.5502 29.2903 24.4396 29.4309 24.4581 29.5856Z" fill="#000088"/>
<path d="M18.5903 25.4322L21.8881 24.788L23.3964 24.1824L21.8039 24.3832L18.5903 25.4322Z" fill="#000088"/>
<path d="M22.9493 29.5313C22.9366 29.6931 23.0568 29.8337 23.2177 29.8455C23.3785 29.8572 23.5192 29.7355 23.5318 29.5737C23.5444 29.4119 23.4243 29.2713 23.2634 29.2596C23.1026 29.2478 22.9619 29.3695 22.9493 29.5313Z" fill="#000088"/>
<path d="M18.3903 24.1376L21.7438 24.007L23.3135 23.8636L21.707 23.897L18.3903 24.1376Z" fill="#000088"/>
<path d="M21.5554 29.0802C21.5021 29.2301 21.5796 29.3939 21.7285 29.446C21.8773 29.4982 22.0411 29.4189 22.0943 29.269C22.1475 29.1191 22.07 28.9553 21.9212 28.9032C21.7724 28.851 21.6086 28.9303 21.5554 29.0802Z" fill="#000088"/>
<path d="M18.5499 22.5909L21.7679 23.632L23.3597 23.796L21.8485 23.1825L18.5499 22.5909Z" fill="#000088"/>
<path d="M20.3412 28.2759C20.2454 28.397 20.266 28.5727 20.387 28.6685C20.5081 28.7643 20.6839 28.7439 20.7796 28.6229C20.8754 28.5019 20.8549 28.3261 20.7338 28.2303C20.6127 28.1345 20.437 28.1549 20.3412 28.2759Z" fill="#000088"/>
<path d="M19.1189 21.2055L21.9318 23.0521L23.4136 23.6873L22.1246 22.7214L19.1189 21.2055Z" fill="#000088"/>
<path d="M19.3658 27.1867C19.2405 27.278 19.2131 27.4538 19.3045 27.5793C19.396 27.7047 19.5718 27.7324 19.6971 27.641C19.8225 27.5497 19.8499 27.3739 19.7584 27.2484C19.6669 27.123 19.4912 27.0953 19.3658 27.1867Z" fill="#000088"/>
<path d="M20.0179 20.0393L22.2447 22.553L23.5138 23.5579L22.5276 22.2927L20.0179 20.0393Z" fill="#000088"/>
<path d="M18.7364 25.8833C18.5894 25.9383 18.515 26.1021 18.5702 26.2491C18.6253 26.3961 18.7891 26.4706 18.936 26.4156C19.0829 26.3605 19.1573 26.1968 19.1022 26.0497C19.047 25.9027 18.8833 25.8282 18.7364 25.8833Z" fill="#000088"/>
<path d="M21.2193 19.148L22.7012 22.1569L23.6723 23.4605L23.0608 21.9819L21.2193 19.148Z" fill="#000088"/>
<path d="M18.4006 24.448C18.2414 24.4617 18.1239 24.6023 18.1381 24.7622C18.1524 24.922 18.2931 25.0404 18.4523 25.0267C18.6115 25.013 18.729 24.8724 18.7147 24.7126C18.7005 24.5528 18.5598 24.4343 18.4006 24.448Z" fill="#000088"/>
<path d="M22.5661 18.5841L23.1672 21.8841L23.7793 23.4017L23.6087 21.8112L22.5661 18.5841Z" fill="#000088"/>
<path d="M18.5104 23.0079C18.3623 22.9826 18.2217 23.0821 18.1962 23.2303C18.1708 23.3785 18.2701 23.5191 18.4181 23.5444C18.5662 23.5698 18.7068 23.4702 18.7323 23.3221C18.7578 23.1739 18.6584 23.0333 18.5104 23.0079Z" fill="#000088"/>
<path d="M23.8765 18.4136L24.0193 21.7713L24.1608 23.3605L24.119 21.7582L23.8765 18.4136Z" fill="#000088"/>
<path d="M18.9861 21.6127C18.8481 21.5495 18.6843 21.6109 18.6203 21.7498C18.5563 21.8887 18.6164 22.0524 18.7544 22.1156C18.8925 22.1788 19.0563 22.1174 19.1203 21.9785C19.1842 21.8396 19.1242 21.6758 18.9861 21.6127Z" fill="#000088"/>
<path d="M25.4952 18.5989L24.4398 21.7921L24.2094 23.3877L24.8086 21.8937L25.4952 18.5989Z" fill="#000088"/>
<path d="M19.7403 20.3802C19.6215 20.2827 19.4457 20.3003 19.3478 20.4196C19.2498 20.5388 19.2667 20.7146 19.3856 20.8121C19.5045 20.9097 19.6802 20.8921 19.7782 20.7728C19.8762 20.6535 19.8592 20.4778 19.7403 20.3802Z" fill="#000088"/>
<path d="M26.8136 19.1588L24.9654 21.9658L24.3227 23.4484L25.287 22.1636L26.8136 19.1588Z" fill="#000088"/>
<path d="M20.83 19.4013C20.7406 19.2741 20.5649 19.2435 20.4374 19.333C20.31 19.4225 20.2791 19.5983 20.3685 19.7256C20.4578 19.8529 20.6336 19.8835 20.761 19.7939C20.8885 19.7044 20.9194 19.5286 20.83 19.4013Z" fill="#000088"/>
<path d="M27.9773 20.0543L25.4627 22.2759L24.4537 23.5459L25.7179 22.5631L27.9773 20.0543Z" fill="#000088"/>
<path d="M22.0937 18.7183C22.034 18.576 21.8702 18.5092 21.7278 18.5689C21.5855 18.6287 21.5184 18.7925 21.5781 18.9348C21.6378 19.077 21.8016 19.1439 21.9439 19.0842C22.0863 19.0244 22.1533 18.8606 22.0937 18.7183Z" fill="#000088"/>
<path d="M28.8296 21.1995L25.8239 22.7154L24.5348 23.6814L26.0166 23.0461L28.8296 21.1995Z" fill="#000088"/>
<path d="M23.5305 18.4151C23.5121 18.2603 23.3714 18.1501 23.2163 18.1688C23.0612 18.1876 22.9504 18.3283 22.9688 18.483C22.9872 18.6377 23.1278 18.748 23.2829 18.7292C23.438 18.7105 23.5488 18.5698 23.5305 18.4151Z" fill="#000088"/>
<path d="M29.3982 22.5688L26.1003 23.2117L24.5916 23.8175L26.1841 23.6177L29.3982 22.5688Z" fill="#000088"/>
<path d="M25.0371 18.4701C25.0508 18.3089 24.9323 18.1682 24.7725 18.156C24.6127 18.1437 24.4721 18.2645 24.4584 18.4258C24.4447 18.5871 24.5631 18.7277 24.7229 18.7399C24.8828 18.7522 25.0234 18.6314 25.0371 18.4701Z" fill="#000088"/>
<path d="M29.5975 23.8534L26.2442 24.0064L24.6755 24.1464L26.2823 24.0974L29.5975 23.8534Z" fill="#000088"/>
<path d="M26.4329 18.9207C26.4861 18.7705 26.4086 18.6067 26.2598 18.5549C26.111 18.5031 25.9472 18.583 25.894 18.7333C25.8408 18.8835 25.9183 19.0473 26.0671 19.0991C26.2159 19.1509 26.3797 19.071 26.4329 18.9207Z" fill="#000088"/>
<path d="M29.4389 25.4042L26.2197 24.3654L24.628 24.2118L26.1402 24.8275L29.4389 25.4042Z" fill="#000088"/>
<path d="M27.657 19.7216C27.7485 19.5961 27.7211 19.4203 27.5958 19.329C27.4705 19.2378 27.2947 19.2657 27.2032 19.3913C27.1117 19.5168 27.1391 19.6926 27.2644 19.7838C27.3897 19.8751 27.5655 19.8472 27.657 19.7216Z" fill="#000088"/>
<path d="M28.8771 26.7895L26.0511 24.9466L24.5713 24.3289L25.8694 25.2986L28.8771 26.7895Z" fill="#000088"/>
<path d="M28.6337 20.8089C28.7541 20.7122 28.7734 20.5364 28.6768 20.4163C28.5803 20.2963 28.4046 20.2774 28.2843 20.3741C28.1639 20.4709 28.1446 20.6466 28.2411 20.7667C28.3377 20.8868 28.5134 20.9057 28.6337 20.8089Z" fill="#000088"/>
<path d="M27.9834 27.9545L25.7309 25.445L24.4656 24.4593L25.4698 25.7286L27.9834 27.9545Z" fill="#000088"/>
<path d="M29.2654 22.1108C29.4062 22.0494 29.4705 21.8856 29.4092 21.745C29.3479 21.6044 29.1841 21.5402 29.0434 21.6016C28.9027 21.6631 28.8383 21.8269 28.8996 21.9675C28.9609 22.1081 29.1247 22.1723 29.2654 22.1108Z" fill="#000088"/>
<path d="M26.7903 28.8455L25.2636 25.841L24.2993 24.5575L24.9421 26.0405L26.7903 28.8455Z" fill="#000088"/>
<path d="M29.6046 23.5415C29.7559 23.5192 29.8603 23.3785 29.8381 23.2273C29.8158 23.0761 29.6751 22.9716 29.5239 22.9938C29.3727 23.0161 29.2682 23.1568 29.2905 23.308C29.3128 23.4592 29.4534 23.5637 29.6046 23.5415Z" fill="#000088"/>
<path d="M25.4665 29.4056L24.7668 26.1112L24.1696 24.619L24.4091 26.215L25.4665 29.4056Z" fill="#000088"/>
</g>
<rect x="0.333333" y="0.333333" width="47.3333" height="47.3333" rx="23.6667" stroke="#C7C2FA" stroke-width="0.666667"/>
<defs>
<clipPath id="clip0_174_2687">
<rect width="48" height="48" rx="24" fill="white"/>
</clipPath>
</defs>
</svg>
