<svg width="40" height="40" viewBox="0 0 40 40" fill="none" xmlns="http://www.w3.org/2000/svg">
<g clip-path="url(#clip0_306_27348)">
<path d="M-10.125 0.000488281V40.0005H50.3425V0.000488281H-10.125Z" fill="#012169"/>
<path d="M-10.125 0.000488281L50.3425 40.0005L-10.125 0.000488281ZM50.3425 0.000488281L-10.125 40.0005L50.3425 0.000488281Z" fill="black"/>
<path d="M-10.125 0.000488281L50.3425 40.0005M50.3425 0.000488281L-10.125 40.0005" stroke="white" stroke-width="7.61898"/>
<mask id="mask0_306_27348" style="mask-type:luminance" maskUnits="userSpaceOnUse" x="-11" y="0" width="62" height="41">
<path d="M20.1088 20.0005H50.3425V40.0005L20.1088 20.0005ZM20.1088 20.0005V40.0005H-10.125L20.1088 20.0005ZM20.1088 20.0005H-10.125V0.000488281L20.1088 20.0005ZM20.1088 20.0005V0.000488281H50.3425L20.1088 20.0005Z" fill="white"/>
</mask>
<g mask="url(#mask0_306_27348)">
<path d="M-10.1249 0.000488281L50.3426 40.0005L-10.1249 0.000488281ZM50.3426 0.000488281L-10.1249 40.0005L50.3426 0.000488281Z" fill="black"/>
<path d="M-10.1249 0.000488281L50.3426 40.0005M50.3426 0.000488281L-10.1249 40.0005" stroke="#C8102E" stroke-width="5.07932"/>
</g>
<path d="M-11.334 14.667H15.2717V-1.33301H24.9465V14.667H51.5522V25.3337H24.9465V41.3337H15.2717V25.3337H-11.334V14.667Z" fill="#C8102E" stroke="white" stroke-width="2.53966"/>
</g>
<defs>
<clipPath id="clip0_306_27348">
<rect width="40" height="40" rx="20" fill="white"/>
</clipPath>
</defs>
</svg>
