<svg version="1.1" id="Layer_1" xmlns="http://www.w3.org/2000/svg" xmlns:xlink="http://www.w3.org/1999/xlink" x="0px" y="0px"
	 width="100%" viewBox="0 0 512 512" enable-background="new 0 0 512 512" xml:space="preserve">
<path fill="#FFDA44" opacity="1.000000" stroke="none" 
	d="
M1.252465,289.338318 
	C1.000000,267.979095 1.000000,246.958206 1.000000,225.468658 
	C2.845591,222.154938 2.226959,218.836578 2.374877,215.804291 
	C3.121653,200.495651 8.031543,186.214905 12.654728,171.848328 
	C13.268677,169.940460 14.169880,168.144257 16.423693,166.862137 
	C19.599129,165.849243 22.425003,165.800629 25.263710,165.800598 
	C179.679214,165.798965 334.094727,165.798248 488.510223,165.809296 
	C490.673889,165.809448 492.843872,165.753952 495.429504,166.290909 
	C499.638611,167.026962 500.817078,170.048569 501.818298,173.051697 
	C507.167328,189.096848 511.753204,205.309509 512.035828,222.407455 
	C512.046936,223.077957 512.186279,223.719681 512.747009,224.660049 
	C513.000000,246.020889 513.000000,267.041779 513.000000,288.531342 
	C510.924744,294.203369 511.971252,299.781403 511.055908,305.136108 
	C508.868866,317.929901 505.562195,330.414154 501.157776,342.614868 
	C500.526489,344.363617 499.647736,345.946381 497.573792,347.138702 
	C494.397156,348.151489 491.570251,348.199371 488.730652,348.199402 
	C334.263489,348.201080 179.796295,348.202240 25.329126,348.188751 
	C22.834538,348.188538 20.322136,348.300537 17.440338,347.435608 
	C13.660424,346.222687 12.923223,343.175262 12.005728,340.389130 
	C6.777496,324.512848 2.067302,308.520416 1.963256,291.585785 
	C1.959142,290.916260 1.813313,290.275665 1.252465,289.338318 
z"/>
<path fill="#D80027" opacity="1.000000" stroke="none" 
	d="
M15.917080,346.287811 
	C176.416382,346.002045 336.666687,346.002350 497.375214,346.002441 
	C499.612579,348.540741 498.013123,350.836121 497.148285,353.052948 
	C487.192627,378.572357 473.188690,401.731171 455.604309,422.661957 
	C431.615692,451.215759 402.992096,474.034485 369.258698,490.077515 
	C346.472229,500.914337 322.822632,509.230560 297.462982,511.782898 
	C294.836548,512.047241 292.115906,511.394073 289.288208,512.759033 
	C267.979095,513.000000 246.958206,513.000000 225.468658,513.000000 
	C220.624191,511.043213 215.882751,511.935730 211.338852,511.256836 
	C191.449051,508.285156 172.400330,502.407379 154.069290,494.292084 
	C94.720459,468.017822 51.197521,425.325165 22.796370,367.085297 
	C20.461969,362.298340 18.471783,357.345673 16.561798,352.370605 
	C15.851422,350.520233 14.996655,348.654144 15.917080,346.287811 
z"/>
<path fill="#D80027" opacity="1.000000" stroke="none" 
	d="
M497.281982,167.578598 
	C492.669952,167.875870 488.340515,167.957932 484.011108,167.958420 
	C328.368286,167.976074 172.725464,167.986130 16.624393,167.997620 
	C14.387463,165.459488 15.986557,163.164062 16.851400,160.947205 
	C26.806955,135.428070 40.810829,112.269516 58.394821,91.338943 
	C82.382942,62.785404 111.046112,40.052887 144.725906,23.895832 
	C165.986496,13.696589 188.164856,6.181422 211.585052,2.726445 
	C215.835373,2.099434 220.187714,2.360735 224.711823,1.240949 
	C246.020889,1.000000 267.041779,1.000000 288.531342,1.000000 
	C293.378540,2.928850 298.115540,2.036200 302.663300,2.708542 
	C322.396729,5.625930 341.177216,11.708995 359.463806,19.462204 
	C394.698364,34.401096 424.744476,56.679592 450.210175,85.020287 
	C469.936737,106.973915 485.517273,131.706604 496.467834,159.222275 
	C497.493652,161.799881 499.041931,164.377716 497.281982,167.578598 
z"/>
<path fill="#000000" opacity="1.000000" stroke="none" 
	d="
M497.336334,168.010376 
	C495.984741,160.915726 492.656403,154.792725 489.752838,148.653580 
	C479.829254,127.671700 467.428741,108.251923 452.207855,90.617477 
	C432.201477,67.438850 409.087738,48.171658 382.429291,33.067535 
	C358.724457,19.636856 333.363403,10.805013 306.833832,5.136080 
	C300.843750,3.856104 294.640747,3.630436 288.866211,1.412776 
	C362.261658,1.000000 435.523407,1.035820 508.784790,0.894920 
	C512.473450,0.887826 513.097412,1.757346 513.091553,5.276858 
	C512.970032,78.205315 513.000000,151.134018 513.000000,224.531342 
	C510.714203,225.573044 511.141571,223.910309 510.992523,222.628647 
	C508.817841,203.928925 504.346924,185.788940 497.336334,168.010376 
z"/>
<path fill="#000000" opacity="1.000000" stroke="none" 
	d="
M224.531342,1.000000 
	C225.608597,3.340167 223.780563,2.838614 222.618134,2.978022 
	C201.562851,5.503149 181.303345,11.011620 161.567825,18.733994 
	C138.939774,27.588194 118.137634,39.687618 99.137619,54.636463 
	C74.314545,74.166771 53.518089,97.459564 37.088451,124.565659 
	C28.834408,138.183441 22.298624,152.602966 16.223791,167.645020 
	C10.948315,182.343170 7.141867,197.090866 4.151497,212.027740 
	C3.247023,216.545563 3.670592,221.328857 1.334934,225.337738 
	C1.000000,151.738327 1.035824,78.476570 0.894913,5.215164 
	C0.887818,1.526426 1.757458,0.902602 5.276886,0.908466 
	C78.205330,1.029966 151.134033,1.000000 224.531342,1.000000 
z"/>
<path fill="#000000" opacity="1.000000" stroke="none" 
	d="
M16.086977,345.616852 
	C24.174952,367.230499 34.623817,387.133667 47.858265,405.612854 
	C61.599255,424.799286 77.687874,441.658295 95.955811,456.581512 
	C111.919327,469.622192 129.133469,480.622498 147.767517,489.310425 
	C167.670425,498.589996 188.390320,505.418732 210.124222,509.151306 
	C215.173172,510.018402 220.495819,509.876465 225.138702,512.591553 
	C151.738327,513.000000 78.476593,512.964172 5.215190,513.105103 
	C1.526532,513.112183 0.902595,512.242676 0.908459,508.723145 
	C1.029969,435.794708 1.000000,362.865967 1.000000,289.468658 
	C3.278995,288.422089 2.877830,290.075104 3.004642,291.360046 
	C4.836382,309.920593 9.785663,327.730225 16.086977,345.616852 
z"/>
<path fill="#000000" opacity="1.000000" stroke="none" 
	d="
M289.468658,513.000000 
	C288.405884,510.670471 290.220215,511.151337 291.387726,511.023224 
	C312.628845,508.692902 332.928192,502.829468 352.787659,495.096130 
	C375.214233,486.363129 395.722687,474.255066 414.617798,459.557037 
	C430.150360,447.474640 444.019897,433.573914 456.477081,418.224548 
	C469.556122,402.109009 480.504089,384.733276 489.404114,366.043427 
	C492.418243,359.713837 494.960236,353.159393 497.775696,346.354980 
	C503.146973,331.683350 506.704315,316.867981 509.841034,301.969604 
	C510.788727,297.468414 510.332581,292.671692 512.665039,288.662231 
	C513.000000,362.261658 512.964172,435.523407 513.105042,508.784790 
	C513.112183,512.473450 512.242676,513.097412 508.723145,513.091553 
	C435.794708,512.970032 362.865967,513.000000 289.468658,513.000000 
z"/>
</svg>