<svg width="77" height="86" viewBox="0 0 77 86" fill="none" xmlns="http://www.w3.org/2000/svg">
<g id="Group">
<path id="Vector" d="M32.8081 70.8806C32.6932 72.6361 37.0195 72.9314 51.2426 72.1936C66.2975 71.4033 69.566 70.7146 68.9258 68.6619C68.0087 65.8477 33.0723 68.0488 32.8081 70.8806Z" fill="#9D97ED"/>
<path id="Vector_2" d="M22.1054 10.4949C16.5028 10.3406 15.7923 11.2172 12.2641 22.5971C8.60661 34.3469 8.39194 36.6316 10.7223 37.5422C14.9543 39.1774 17.004 36.3958 22.3136 22.1023C26.2244 11.5545 26.2405 10.6089 22.1054 10.4949Z" fill="#9D97ED"/>
<path id="Vector_3" d="M53.132 28.6385C49.071 28.476 47.6003 29.1907 42.8634 33.5664C28.8668 46.5987 17.7204 54.8255 25.6257 54.9936C28.8525 55.0828 31.7321 52.9217 48.6673 38.2082C57.9862 30.0315 58.565 28.8894 53.132 28.6385Z" fill="#9D97ED"/>
</g>
</svg>
